<svg xmlns="http://www.w3.org/2000/svg" width="10" height="10" viewBox="0 0 10 10" fill="none">
  <g clip-path="url(#clip0_790_13846)">
    <path 
      fill-rule="evenodd" 
      clip-rule="evenodd" 
      d="M5 1.5625C3.10152 1.5625 1.5625 3.10152 1.5625 5C1.5625 5.90577 1.91252 6.72948 2.48538 7.34377C3.11254 6.67121 4.00712 6.25 5 6.25C5.99288 6.25 6.88746 6.67121 7.51462 7.34377C8.08748 6.72948 8.4375 5.90577 8.4375 5C8.4375 3.10152 6.89848 1.5625 5 1.5625ZM7.04872 7.76058C6.53543 7.21502 5.80747 6.875 5 6.875C4.19253 6.875 3.46457 7.21502 2.95128 7.76058C3.52348 8.18601 4.23208 8.4375 5 8.4375C5.76791 8.4375 6.47652 8.18601 7.04872 7.76058ZM0.9375 5C0.9375 2.75634 2.75634 0.9375 5 0.9375C7.24366 0.9375 9.0625 2.75634 9.0625 5C9.0625 6.20723 8.53553 7.29178 7.70008 8.03542C6.98255 8.6741 6.03626 9.0625 5 9.0625C3.96374 9.0625 3.01745 8.6741 2.29992 8.03542C1.46447 7.29178 0.9375 6.20723 0.9375 5ZM5 3.125C4.48223 3.125 4.0625 3.54473 4.0625 4.0625C4.0625 4.58027 4.48223 5 5 5C5.51777 5 5.9375 4.58027 5.9375 4.0625C5.9375 3.54473 5.51777 3.125 5 3.125ZM3.4375 4.0625C3.4375 3.19955 4.13705 2.5 5 2.5C5.86294 2.5 6.5625 3.19955 6.5625 4.0625C6.5625 4.92544 5.86294 5.625 5 5.625C4.13705 5.625 3.4375 4.92544 3.4375 4.0625Z" 
      fill="color-base-base-content"/>
  </g>
  <defs>
    <clipPath id="clip0_790_13846">
      <rect width="10" height="10" fill="white"/>
    </clipPath>
  </defs>
</svg>
